<svg width="24" height="24" viewBox="0 0 24 24" xmlns="http://www.w3.org/2000/svg">
    <g fill="none" fill-rule="evenodd" opacity=".505">
        <path opacity=".87" d="M24 24H0V0h24z"/>
        <path d="M0 0h24v24H0z"/>
        <path d="m12 5.83 2.46 2.46a.996.996 0 1 0 1.41-1.41L12.7 3.7a.996.996 0 0 0-1.41 0L8.12 6.88a.996.996 0 1 0 1.41 1.41L12 5.83zm0 12.34-2.46-2.46a.996.996 0 1 0-1.41 1.41l3.17 3.18c.39.39 1.02.39 1.41 0l3.17-3.17a.996.996 0 1 0-1.41-1.41L12 18.17z" fill="#282A30" fill-rule="nonzero"/>
    </g>
</svg>
