<svg width="204" height="48" viewBox="0 0 204 48" xmlns="http://www.w3.org/2000/svg">
    <g fill="none" fill-rule="evenodd">
        <g fill="#282A30">
            <path d="M67.026 23.08H56.519v-9.118H55v19.23h1.519V24.46h10.507v8.734h1.52v-19.23h-1.52v9.117M75.318 13.962h1.505v19.23h-1.505zM94.39 25.476c.42-.6.736-1.277.94-2.012.204-.73.306-1.501.306-2.29 0-.98-.158-1.92-.472-2.792a6.373 6.373 0 0 0-1.433-2.302c-.632-.649-1.431-1.17-2.374-1.548-.94-.378-2.046-.57-3.29-.57h-3.719v19.23h1.476v-4.845h2.257a11.255 11.255 0 0 0 1.448-.09l4.029 4.936H95.4l-4.326-5.282a6.735 6.735 0 0 0 1.744-.868 6.358 6.358 0 0 0 1.572-1.567zm-8.566-10.163h2.148c1.094 0 2.046.155 2.833.462.777.302 1.42.721 1.91 1.245.491.525.858 1.15 1.089 1.854.237.716.357 1.488.357 2.295 0 .806-.115 1.574-.343 2.283a4.864 4.864 0 0 1-1.076 1.837c-.488.522-1.13.941-1.91 1.246-.789.306-1.751.462-2.86.462h-2.148V15.313zM102.358 24.46h8.493v-1.38h-8.493v-7.767h9.465v-1.35h-10.919v19.23h11.288v-1.35h-9.834V24.46M132.17 24.767a6.734 6.734 0 0 0-1.398-1.314c-.55-.398-1.223-.8-2-1.195l-1.632-.838a18.681 18.681 0 0 1-1.537-.838 5.282 5.282 0 0 1-1.021-.801 2.694 2.694 0 0 1-.574-.901c-.128-.332-.193-.743-.193-1.222 0-.905.291-1.627.894-2.214.607-.59 1.378-.878 2.358-.878.905 0 1.674.174 2.287.52.61.343 1.137.887 1.57 1.616l.151.257 1.157-.703-.16-.272c-.58-.97-1.277-1.686-2.077-2.13-.795-.439-1.78-.661-2.928-.661-.637 0-1.245.105-1.806.31a4.345 4.345 0 0 0-1.485.896c-.42.39-.756.87-.994 1.427a4.633 4.633 0 0 0-.363 1.854c0 .648.091 1.22.274 1.701.182.482.46.923.825 1.314.351.377.79.73 1.3 1.052a26.07 26.07 0 0 0 1.72.974l1.653.834a15.45 15.45 0 0 1 1.69.983c.461.317.844.658 1.136 1.014.287.35.5.738.639 1.154.14.42.21.905.21 1.442 0 1.086-.354 1.939-1.086 2.606-.732.67-1.801 1.01-3.18 1.01-1.111 0-2.11-.28-2.965-.83-.857-.554-1.54-1.333-2.028-2.316l-.14-.284-1.245.722.138.268a7.448 7.448 0 0 0 2.434 2.801c1.032.71 2.313 1.068 3.807 1.068 1.776 0 3.176-.467 4.162-1.39.995-.93 1.5-2.163 1.5-3.662 0-.665-.09-1.28-.27-1.828a5.093 5.093 0 0 0-.823-1.546M148.658 16.08c-.63-.649-1.435-1.17-2.39-1.55-.95-.376-2.08-.568-3.356-.568h-3.63v19.23h1.494v-4.845h2.154c1.273 0 2.398-.187 3.346-.554.953-.37 1.756-.886 2.387-1.535a6.447 6.447 0 0 0 1.43-2.3 8.14 8.14 0 0 0 .478-2.79c0-.982-.16-1.92-.48-2.79a6.426 6.426 0 0 0-1.433-2.298zm-7.882-.767h2.039c1.14 0 2.125.155 2.92.462.786.302 1.432.72 1.919 1.244a4.891 4.891 0 0 1 1.076 1.85c.23.719.348 1.492.348 2.3 0 .806-.118 1.574-.348 2.284a4.896 4.896 0 0 1-1.076 1.837c-.486.522-1.13.941-1.919 1.245-.798.306-1.78.462-2.92.462h-2.039V15.313zM161.225 13.193l-7.644 20h1.498l1.444-3.808h9.891l1.444 3.808h1.526l-7.646-20h-.513zm4.66 14.82h-8.83l4.425-11.582 4.405 11.581zM185.404 28.434a8.129 8.129 0 0 1-2.763 2.431c-1.101.596-2.358.898-3.735.898-1.157 0-2.24-.216-3.212-.643a7.628 7.628 0 0 1-2.541-1.797 8.555 8.555 0 0 1-1.687-2.714c-.408-1.033-.615-2.183-.615-3.417 0-1.232.202-2.383.6-3.418a8.477 8.477 0 0 1 1.663-2.713 7.583 7.583 0 0 1 2.501-1.796 7.651 7.651 0 0 1 3.133-.643c1.273 0 2.443.265 3.476.79a7.687 7.687 0 0 1 2.655 2.238l.179.236 1.111-.876-.193-.25a9.27 9.27 0 0 0-3.178-2.631c-1.235-.621-2.599-.936-4.05-.936a9.122 9.122 0 0 0-3.68.748 9.074 9.074 0 0 0-2.972 2.072c-.838.88-1.506 1.945-1.987 3.163-.481 1.22-.725 2.573-.725 4.016 0 1.445.244 2.797.725 4.017.482 1.221 1.159 2.287 2.016 3.166a9.323 9.323 0 0 0 3.025 2.07c1.151.496 2.416.748 3.756.748 1.559 0 3.011-.348 4.323-1.035a9.495 9.495 0 0 0 3.283-2.847l.18-.248-1.11-.876-.178.247M194.167 31.842v-7.381h8.493v-1.38h-8.493v-7.768h9.465v-1.35h-10.92v19.23H204v-1.35h-9.833"/>
        </g>
        <path d="M23.999 0C37.233 0 48 10.767 48 23.999 48 37.233 37.233 48 24 48S0 37.233 0 24 10.767 0 23.999 0zm.894 15.281a1.567 1.567 0 0 0-1.793.001l-7.444 5.213A1.537 1.537 0 0 0 15 21.752v9.707c0 .85.697 1.541 1.553 1.541h7.258a.774.774 0 0 0 .777-.77.774.774 0 0 0-.777-.77h-7.258v-9.708l7.443-5.212 7.45 5.213v9.706h-2.063a.774.774 0 0 0-.777.77c0 .426.348.771.777.771h2.063A1.55 1.55 0 0 0 33 31.46v-9.707c0-.5-.246-.97-.658-1.259z" fill="#00A82C"/>
    </g>
</svg>
